Genre:Horror | Thriller
 Language:English
  
http://www.imdb.com/title/tt1369706/

 Source:DvDScr Thanks!
 
Format : AVI
 Format/Info : Audio Video Interleave
 File size : 743 MiB
 Duration : 1h 32mn
 Overall bit rate : 1 127 Kbps
 
Video
 ID : 0
 Format : MPEG-4 Visual
 Format profile : Advanced Simple@L5
 Format settings, BVOP : Yes
 Format settings, QPel : No
 Format settings, GMC : No warppoints
 Format settings, Matrix : Default (H.263)
 Codec ID : XVID
 Codec ID/Hint : XviD
 Duration : 1h 32mn
 Bit rate : 926 Kbps
 Width : 640 pixels
 Height : 272 pixels
 Display aspect ratio : 2.35:1
 Frame rate : 23.976 fps
 Color space : YUV
 Chroma subsampling : 4:2:0
 Bit depth : 8 bits
 Scan type : Progressive
 Bits/(Pixel*Frame) : 0.222
 Stream size : 611 MiB (82%)
 Writing library : XviD 1.2.1 (UTC 2008-12-04)
 
Audio
 ID : 1
 Format : AC-3
 Format/Info : Audio Coding 3
 Mode extension : CM (complete main)
 Codec ID : 2000
 Duration : 1h 32mn
 Bit rate mode : Constant
 Bit rate : 192 Kbps
 Channel(s) : 2 channels
 Channel positions : Front: L R
 Sampling rate : 48.0 KHz
 Bit depth : 16 bits
 Stream size : 127 MiB (17%)
 Alignment : Aligned on interleaves
 Interleave, duration : 42 ms (1.00 video frame)
 Interleave, preload duration : 512 ms
 

Plot:
 A thriller centered on an institutionalized young woman who becomes terrorized by a ghost.
 
